# xmcd
#
# Track frame offsets: 
#        150
#        18559
#        38838
#        59886
#        85598
#        108909
#        124985
#        147529
#        166642
#        191398
#        213074
#        240089
#        287779
#
# Disc length: 4144 seconds
#
# Revision: 5
# Processed by: cddbd v1.5.2PL0 Copyright (c) Steve Scherf et al.
# Submitted via: ExactAudioCopyFreeDBPlugin 1.0
#
DISCID=ae102e0d
DTITLE=Robert Plant - Now And Zen
DYEAR=1988
DGENRE=
TTITLE0=Heaven Knows
TTITLE1=Dance On My Own
TTITLE2=Tall Cool One
TTITLE3=The Way I Feel
TTITLE4=Helen Of Troy
TTITLE5=Billy's Revenge
TTITLE6=Ship Of Fools
TTITLE7=Why
TTITLE8=White, Clean And Neat
TTITLE9=Walking Towards Paradise
TTITLE10=Billy's Revenge [Live]
TTITLE11=Ship Of Fools [Live]
TTITLE12=Tall Cool One [Live]
EXTD=
EXTT0=
EXTT1=
EXTT2=
EXTT3=
EXTT4=
EXTT5=
EXTT6=
EXTT7=
EXTT8=
EXTT9=
EXTT10=
EXTT11=
EXTT12=
PLAYORDER=
